<svg xmlns="http://www.w3.org/2000/svg" xmlns:xlink="http://www.w3.org/1999/xlink" width="205.456" height="210.771" viewBox="0 0 205.456 210.771">
  <defs>
    <filter id="Path_634" x="0" y="16.678" width="205.098" height="191.125" filterUnits="userSpaceOnUse">
      <feOffset dy="2" input="SourceAlpha"/>
      <feGaussianBlur stdDeviation="2.5" result="blur"/>
      <feFlood flood-opacity="0.396"/>
      <feComposite operator="in" in2="blur"/>
      <feComposite in="SourceGraphic"/>
    </filter>
    <filter id="Path_635" x="9.702" y="43.309" width="179.003" height="161.494" filterUnits="userSpaceOnUse">
      <feOffset dy="2" input="SourceAlpha"/>
      <feGaussianBlur stdDeviation="1.5" result="blur-2"/>
      <feFlood flood-opacity="0.302"/>
      <feComposite operator="in" in2="blur-2"/>
      <feComposite in="SourceGraphic"/>
    </filter>
    <filter id="Path_636" x="13.359" y="52.253" width="171.687" height="155.549" filterUnits="userSpaceOnUse">
      <feOffset dy="2" input="SourceAlpha"/>
      <feGaussianBlur stdDeviation="2.5" result="blur-3"/>
      <feFlood flood-opacity="0.29"/>
      <feComposite operator="in" in2="blur-3"/>
      <feComposite in="SourceGraphic"/>
    </filter>
    <linearGradient id="linear-gradient" x1="-12.94" y1="0.5" x2="-11.94" y2="0.5" gradientUnits="objectBoundingBox">
      <stop offset="0" stop-color="#fdc"/>
      <stop offset="1" stop-color="#ffbc97"/>
    </linearGradient>
    <linearGradient id="linear-gradient-2" x1="-23.358" y1="0.5" x2="-22.358" y2="0.5" xlink:href="#linear-gradient"/>
    <linearGradient id="linear-gradient-3" x1="-36.485" y1="0.5" x2="-35.485" y2="0.5" xlink:href="#linear-gradient"/>
    <filter id="Path_686" x="141.299" y="87.098" width="32.653" height="32.653" filterUnits="userSpaceOnUse">
      <feOffset dy="3" input="SourceAlpha"/>
      <feGaussianBlur stdDeviation="3" result="blur-4"/>
      <feFlood flood-opacity="0.161"/>
      <feComposite operator="in" in2="blur-4"/>
      <feComposite in="SourceGraphic"/>
    </filter>
  </defs>
  <g id="Group_128" data-name="Group 128" transform="translate(-64.766 -88.132)">
    <path id="Path_630" data-name="Path 630" d="M477.883,160.369c0,9.492-12.4,17.185-27.692,17.185a42.4,42.4,0,0,1-11.183-1.459c-1.014-.277-8.534,1.459-8.534,1.459s3.2-3.362,2.1-3.923c-6.154-3.153-10.077-7.923-10.077-13.262,0-9.492,12.4-17.187,27.692-17.187S477.883,150.877,477.883,160.369Z" transform="translate(-230.458 -31.669)" fill="none" stroke="#867ab4" stroke-width="1"/>
    <g transform="matrix(1, 0, 0, 1, 64.77, 88.13)" filter="url(#Path_634)">
      <path id="Path_634-2" data-name="Path 634" d="M457.059,315.005c-5.277-1.106-10.376-2.183-16.238-1.546-11.787,1.283-23.572,2.618-35.359,3.927-6.54.726-19.34,2.1-25.683.156-27.5-8.418-40.624-40.862-30.3-62.474,6.7-14.036,5.255-27.332,1.869-39.992-6.625-24.76,4.848-56.04,26.734-65.516,15.971-6.916,34.522-10.3,50.436-3.247,10.883,4.822,21.038,14.888,27.109,26.159,6.623,12.3,10.427,21.919,24.263,25.966,10.783,3.155,22.149,2.146,33.212,3.62,5.041.671,10.661,2.36,13.082,7.385,3.65,7.578-2.313,16.255-3.908,24.688-2.013,10.64,4.388,17.615,8.41,26.242,4.707,10.1,7.861,22.019,2.793,32.8a33.523,33.523,0,0,1-10.188,12.014c-16.534,12.573-37.536,13.371-56.763,11.437A88.342,88.342,0,0,1,457.059,315.005Z" transform="translate(-338.46 -120.24)" fill="#867fb4"/>
    </g>
    <g transform="matrix(1, 0, 0, 1, 64.77, 88.13)" filter="url(#Path_635)">
      <path id="Path_635-2" data-name="Path 635" d="M519.082,282.419c-1.664-6.648-19.946-6.648-21.608-18.282-3.324-14.96,13.3-23.27,16.62-38.229,2.271-9.085,3.584-25.86-9.363-26.753-10.681-.739-19.83,7.875-30.431,9.377a24,24,0,0,1-18.371-5.506c-5.709-4.732-7.049-10.177-8.261-17.144-1.265-7.254-2.728-16.888-9.514-21.188a32.616,32.616,0,0,0-7.991-3.283c-17.515-5.393-35.721-6.772-50.363,6.346-5.215,4.671-9.279,11.21-9.069,18.209.291,9.773,8.567,17.72,9.787,27.422.819,6.517-1.731,13.133-5.784,18.3-6.7,8.539-15.975,14.385-20.977,24.387-8.833,17.659.177,38.32,13.967,50.555a48.167,48.167,0,0,0,6.041,2.321c6.737,2.064,20.332.6,27.279-.167,12.517-1.39,25.032-2.806,37.552-4.169,6.227-.678,11.642.466,17.246,1.642a94.127,94.127,0,0,0,10.052,1.717c14.5,1.459,29.94,1.427,43.966-3.476C518.085,300,522.507,293.269,519.082,282.419Z" transform="translate(-336.04 -111.7)" fill="#fff"/>
    </g>
    <g transform="matrix(1, 0, 0, 1, 64.77, 88.13)" filter="url(#Path_636)">
      <path id="Path_636-2" data-name="Path 636" d="M510.112,280.268c-1.532-6.127-18.384-6.127-19.914-16.85-3.064-13.787,12.254-21.448,15.318-35.234,2.094-8.374,3.3-23.835-8.631-24.659-9.845-.681-18.276,7.258-28.048,8.643a22.122,22.122,0,0,1-16.931-5.074c-5.261-4.362-6.5-9.381-7.615-15.8-1.163-6.686-2.513-15.565-8.769-19.529a30.042,30.042,0,0,0-7.365-3.025c-16.143-4.972-32.921-6.241-46.417,5.848-4.806,4.305-8.551,10.332-8.359,16.781.269,9.008,7.9,16.334,9.021,25.274.754,6.006-1.595,12.105-5.33,16.867-6.172,7.869-14.723,13.259-19.335,22.476-8.141,16.277.166,35.318,12.875,46.6a44.364,44.364,0,0,0,5.567,2.139c6.21,1.9,18.739.557,25.143-.155,11.537-1.28,23.071-2.587,34.611-3.842,5.739-.624,10.728.43,15.892,1.512a86.49,86.49,0,0,0,9.265,1.585c13.365,1.343,27.6,1.315,40.525-3.207C509.195,296.47,513.268,290.268,510.112,280.268Z" transform="translate(-333.64 -107.39)" fill="#eef1f8"/>
    </g>
    <path id="Path_645" data-name="Path 645" d="M384.606,146.756l-.2,92.332-30.943,14.827a6.238,6.238,0,0,1-8.933-5.631l.03-32.717c-.67-25.024,7.393-48.456,20.716-60.206l4.47-3.941C375.526,146.318,384.625,139.04,384.606,146.756Z" transform="translate(-274.516 -31.551)" fill="none"/>
    <path id="Path_646" data-name="Path 646" d="M404.322,262.279c-.361.089,4.786-11.919,4.786-11.919h.543l11.584,3.747a1.414,1.414,0,0,0-.3.225,1.414,1.414,0,0,1,.3-.225l.424.136s.506-.022,1.368-.049a8.71,8.71,0,0,1,2.243,1.584c.991,4.945-2.762,7.859-7.083,9.2-.674-.274-1.042-.446-1.042-.446S404.683,262.188,404.322,262.279Z" transform="translate(-240.738 28.884)" fill="#ffbd97"/>
    <path id="Path_647" data-name="Path 647" d="M420.293,254.236a8.751,8.751,0,0,0-2.243-1.584c4.8-.152,20.775-.51,23.914,1.4,3.7,2.257,5.507,4.244,5.416,6.321s-2.347,9.028-15.079,7.585c-9.972-1.133-20.315-2.8-19.093-4.521C417.531,262.1,421.283,259.183,420.293,254.236Z" transform="translate(-235.762 30.107)" fill="#747474"/>
    <path id="Path_648" data-name="Path 648" d="M413.21,263.644a12.619,12.619,0,0,0,5.3-3.019c5.892,2,10.941,1.7,16.83,1.7.662-.764,1.48-4.764.361-5.54-3.055-2.121-11.678-1.505-15.41-2.347a8.71,8.71,0,0,0-2.243-1.584c4.8-.153,20.775-.512,23.914,1.4,3.7,2.257,5.507,4.244,5.416,6.321s-2.347,9.03-15.079,7.585C422.33,267.033,411.987,265.366,413.21,263.644Z" transform="translate(-235.762 30.222)" fill="#4b4848"/>
    <path id="Path_649" data-name="Path 649" d="M431.723,253.568a4.066,4.066,0,0,1,.477.216c3.7,2.257,5.507,4.244,5.416,6.321-.066,1.518-1.31,5.632-6.941,7.175C430.438,262.709,429.836,258.139,431.723,253.568Z" transform="translate(-225.998 30.697)" fill="#f1f2f2"/>
    <line id="Line_6" data-name="Line 6" x2="3.912" y2="8.944" transform="translate(185.995 284.266)" fill="none" stroke="#fff" stroke-linecap="round" stroke-linejoin="round" stroke-width="0.494"/>
    <line id="Line_7" data-name="Line 7" x2="3.717" y2="8.066" transform="translate(189.437 284.843)" fill="none" stroke="#fff" stroke-linecap="round" stroke-linejoin="round" stroke-width="0.494"/>
    <line id="Line_8" data-name="Line 8" x2="2.998" y2="7.895" transform="translate(193.484 285.314)" fill="none" stroke="#fff" stroke-linecap="round" stroke-linejoin="round" stroke-width="0.494"/>
    <line id="Line_9" data-name="Line 9" x2="2.409" y2="7.895" transform="translate(197.834 285.314)" fill="none" stroke="#fff" stroke-linecap="round" stroke-linejoin="round" stroke-width="0.494"/>
    <line id="Line_10" data-name="Line 10" y1="8.244" x2="5.574" transform="translate(184.32 284.649)" fill="none" stroke="#fff" stroke-linecap="round" stroke-linejoin="round" stroke-width="0.494"/>
    <line id="Line_11" data-name="Line 11" y1="7.406" x2="5.21" transform="translate(187.825 285.422)" fill="none" stroke="#fff" stroke-linecap="round" stroke-linejoin="round" stroke-width="0.494"/>
    <line id="Line_12" data-name="Line 12" y1="7.345" x2="4.469" transform="translate(191.905 285.613)" fill="none" stroke="#fff" stroke-linecap="round" stroke-linejoin="round" stroke-width="0.494"/>
    <line id="Line_13" data-name="Line 13" y1="7.431" x2="3.889" transform="translate(196.192 286.165)" fill="none" stroke="#fff" stroke-linecap="round" stroke-linejoin="round" stroke-width="0.494"/>
    <path id="Path_650" data-name="Path 650" d="M387.814,237.255s-10.006,8.557-6.816,11.431c1.645,1.482,18.119,14.489,18.119,14.489s12.708-5.288,21.13-.074c7.571.84,19.631-7.127,23.678-14.365,1.667-2.978-3.563-9.24-6.384-11.163l-4.362-.734-44.765-.186Z" transform="translate(-254.259 21.14)"/>
    <path id="Path_651" data-name="Path 651" d="M401.55,193.419a2.326,2.326,0,0,0,.336-.51,3.042,3.042,0,0,1,.177-.545c.067-.156.133-.313.2-.479.814-2.973.651-8.607.789-10.249,0,0,3.969.221,7.959.305,4-.085,7.966-.305,7.966-.305.133,1.642-.027,7.276.787,10.249.064.166.133.322.2.479a3.175,3.175,0,0,1,.177.545,2.441,2.441,0,0,0,.335.51c1.438,1.535,17.371,5.595,19.34,9.438-1.789,6.457-55.475,6.532-57.264.078,1.969-3.845,17.568-7.981,19-9.517" transform="translate(-253.027 -9.943)" fill="#ffc9ae"/>
    <path id="Path_652" data-name="Path 652" d="M382.512,202.776c1.947-3.8,17.7-7.811,19.115-9.332a2.323,2.323,0,0,0,.333-.5,2.9,2.9,0,0,1,.172-.538c.067-.152.133-.311.2-.474.807-2.941.651-8.5.781-10.129,0,0,3.923.218,7.869.3,3.948-.085,7.87-.3,7.87-.3.135,1.624.141,5.828.621,8.956-5.625,6.828-23.105,10.021-35.005,13.723-1.088-.507-1.775-1.072-1.952-1.706" transform="translate(-253.049 -9.849)" fill="#ef9d78" opacity="0.3" style="mix-blend-mode: multiply;isolation: isolate"/>
    <path id="Path_653" data-name="Path 653" d="M381.035,195.2" transform="translate(-253.884 -2.28)" fill="#1c1016"/>
    <path id="Path_654" data-name="Path 654" d="M381.035,195.583" transform="translate(-253.884 -2.063)" fill="#1c1016"/>
    <path id="Path_655" data-name="Path 655" d="M405.789,211.167c8.515,0,15.855-9.172,15.855-17.418a14.441,14.441,0,0,0-.419-3.4c-1.061-.2-2.183-.377-3.4-.527a17.764,17.764,0,0,1-10.415,5.673c-.357.056-.886,2.194-.886,5-.441-1.75-1.089-4.855-1.443-4.864-6.786-.172-10.722-5.809-10.722-5.809s-1.326.329-3.222.845a14.437,14.437,0,0,0-.335,3.083C390.8,201.995,397.271,211.167,405.789,211.167Z" transform="translate(-248.366 -5.319)" fill="#f1f1f2"/>
    <path id="Path_656" data-name="Path 656" d="M385.465,236.677h0Z" transform="translate(-251.389 21.154)" fill="#eaa444"/>
    <path id="Path_657" data-name="Path 657" d="M463.463,229.623c-.836-2.873-9.658-27.562-16.329-33.7-.36-.329-4.069-2.05-4.762-2.365l-.006.013c-.144-.077-.291-.155-.452-.236a34.5,34.5,0,0,0-7.681-2.695c-.731-.164-1.5-.327-2.305-.479.264,1.1-6.485,11.409-15.011,11.409s-15.3-10.1-15.085-11.094c-.568.152-1.185.329-1.826.5a83.456,83.456,0,0,0-8.183,2.709h0l0,0a19.146,19.146,0,0,0-1.82.848,28.138,28.138,0,0,0-2.937,1.513c-6.673,6.141-12.927,24.221-12.927,24.221-3.573,8.038-2.463,16.736.1,18.273,11.324,6.772,17.116-9.578,17.116-9.578-.085,1.529-.239,15.831.222,23.91.469,8.182,1.706,10.078,1.565,10.086,0,0,35.121.147,44.846.147,3.5-2.2,4.423-35.2,3.144-44.854,3.93,7.653,7.922,15.869,7.922,15.869l-.371,24.883c2.427,2.615,8.263,1.629,12.34,1.865C463.033,244.132,463.952,231.31,463.463,229.623Z" transform="translate(-259.067 -5.129)" fill="#e2623d"/>
    <path id="Path_658" data-name="Path 658" d="M397.014,225.475c-3.693-2.609-3.13-15.65-3.13-23.475-3.031,10.606-6.092,27.043-19.068,30.919,9.841,3.531,14.87-10.647,14.87-10.647-.084,1.529.117,15.825.578,23.905a59.455,59.455,0,0,0,1.21,10.091l2.106.009C391.973,245.669,397.014,235.843,397.014,225.475Z" transform="translate(-257.398 1.562)" fill="#e6e7e8" style="mix-blend-mode: multiply;isolation: isolate"/>
    <path id="Path_659" data-name="Path 659" d="M409.523,187.757s.524,6.247-8.11,8.9c3.518,1.463,7.377,9.451,7.377,9.451s6.271-7.834,5.26-14.883A49.709,49.709,0,0,0,409.523,187.757Z" transform="translate(-242.371 -6.485)" fill="#fff"/>
    <path id="Path_660" data-name="Path 660" d="M396.552,187.757s-.829,6.384,7.8,9.039c-3.516,1.463-4.213,10.355-4.213,10.355s-10.284-8.509-7.625-15.924C393.872,189.934,396.552,187.757,396.552,187.757Z" transform="translate(-247.643 -6.485)" fill="#fff"/>
    <path id="Path_661" data-name="Path 661" d="M422.7,246.276s-39.855-12.792-52.857-8.981-15.892,25.586,29.013,31.3,42.979,5.28,42.979,5.28,7.545-14.262.948-21.611C431.85,248.453,422.7,246.276,422.7,246.276Z" transform="translate(-264.94 21.102)" fill="#1e1713"/>
    <path id="Path_662" data-name="Path 662" d="M424.786,178.5c0,9.426-3.506,15.385-6.341,19.67-3.081,4.656-5.934,5.707-10.548,7.226-11.144,3.664-14.233,2.526-16.972-2.019-1.205-2-4.022-9.319-3.445-14.043.252-2.061-.092-5.593.244-13.485.535-12.492,10.845-15.728,20.173-15.728S424.786,165.993,424.786,178.5Z" transform="translate(-250.286 -22.101)" fill="url(#linear-gradient)"/>
    <path id="Path_663" data-name="Path 663" d="M411.432,181.35" transform="translate(-236.71 -10.105)" fill="#f9c9b4"/>
    <path id="Path_664" data-name="Path 664" d="M427.773,196.348c-1.953,3.2-4.091,5.473-7.294,5.122q.153-4.6.3-9.205a10.722,10.722,0,0,0-.57-4.776,3.674,3.674,0,0,0-3.834-2.326,4.57,4.57,0,0,0-2.729,2.463A12.2,12.2,0,0,1,411.6,190.8a7.4,7.4,0,0,0-2.46-5.42c-1.438-1.21-4.29-.557-6.141-.712-3.363-.28-6.672.006-10.025-.637-2.9-.557-5.942-1.762-7.432-4.315-1.4-2.388-1.937-3.178-.664-5.634s4.045-3.193,6.219-4.9c2.518-1.984,5.781-6.645,8.341-8.582,7.161-5.424,14.066-3.1,16.694-2.455a9.193,9.193,0,0,1,3.263,1.46,22.248,22.248,0,0,1,2.1,2.383c4.34-1.031,11.435,1.958,11.528,10.819C433.062,176.676,433.536,186.9,427.773,196.348Z" transform="translate(-252.118 -23.812)" fill="#332b28"/>
    <path id="Path_665" data-name="Path 665" d="M398.664,262.279c.36.089-4.786-11.919-4.786-11.919h-.541l-11.586,3.747a1.38,1.38,0,0,1,.3.225,1.38,1.38,0,0,0-.3-.225l-.422.136s-.506-.022-1.368-.049a8.755,8.755,0,0,0-2.246,1.584c-.989,4.945,2.765,7.859,7.085,9.2.675-.274,1.044-.446,1.044-.446S398.3,262.188,398.664,262.279Z" transform="translate(-255.85 28.884)" fill="#ffbd97"/>
    <path id="Path_666" data-name="Path 666" d="M387.438,254.236a8.8,8.8,0,0,1,2.246-1.584c-4.8-.152-20.778-.51-23.916,1.4-3.7,2.257-5.507,4.244-5.416,6.321s2.347,9.028,15.079,7.585c9.97-1.133,20.317-2.8,19.093-4.521C390.2,262.1,386.449,259.183,387.438,254.236Z" transform="translate(-265.572 30.107)" fill="#747474"/>
    <path id="Path_667" data-name="Path 667" d="M394.522,263.644a12.624,12.624,0,0,1-5.3-3.019c-5.891,2-10.938,1.7-16.828,1.7-.662-.764-1.479-4.764-.361-5.54,3.056-2.121,11.676-1.505,15.409-2.347a8.755,8.755,0,0,1,2.246-1.584c-4.8-.153-20.778-.512-23.916,1.4-3.7,2.257-5.507,4.244-5.416,6.321s2.347,9.03,15.079,7.585C385.4,267.033,395.746,265.366,394.522,263.644Z" transform="translate(-265.572 30.222)" fill="#4b4848"/>
    <path id="Path_668" data-name="Path 668" d="M366.245,253.568a4.316,4.316,0,0,0-.477.216c-3.7,2.257-5.507,4.244-5.416,6.321.067,1.518,1.31,5.632,6.941,7.175C367.53,262.709,368.132,258.139,366.245,253.568Z" transform="translate(-265.572 30.697)" fill="#f1f2f2"/>
    <line id="Line_14" data-name="Line 14" x1="3.912" y2="8.944" transform="translate(116.491 284.266)" fill="none" stroke="#fff" stroke-linecap="round" stroke-linejoin="round" stroke-width="0.494"/>
    <line id="Line_15" data-name="Line 15" x1="3.717" y2="8.066" transform="translate(113.245 284.843)" fill="none" stroke="#fff" stroke-linecap="round" stroke-linejoin="round" stroke-width="0.494"/>
    <line id="Line_16" data-name="Line 16" x1="2.998" y2="7.895" transform="translate(109.917 285.314)" fill="none" stroke="#fff" stroke-linecap="round" stroke-linejoin="round" stroke-width="0.494"/>
    <line id="Line_17" data-name="Line 17" x1="2.409" y2="7.895" transform="translate(106.157 285.314)" fill="none" stroke="#fff" stroke-linecap="round" stroke-linejoin="round" stroke-width="0.494"/>
    <line id="Line_18" data-name="Line 18" x1="5.574" y1="8.244" transform="translate(116.505 284.649)" fill="none" stroke="#fff" stroke-linecap="round" stroke-linejoin="round" stroke-width="0.494"/>
    <line id="Line_19" data-name="Line 19" x1="5.21" y1="7.406" transform="translate(113.364 285.422)" fill="none" stroke="#fff" stroke-linecap="round" stroke-linejoin="round" stroke-width="0.494"/>
    <line id="Line_20" data-name="Line 20" x1="4.47" y1="7.345" transform="translate(110.024 285.613)" fill="none" stroke="#fff" stroke-linecap="round" stroke-linejoin="round" stroke-width="0.494"/>
    <line id="Line_21" data-name="Line 21" x1="3.888" y1="7.431" transform="translate(106.318 286.165)" fill="none" stroke="#fff" stroke-linecap="round" stroke-linejoin="round" stroke-width="0.494"/>
    <path id="Path_669" data-name="Path 669" d="M407.672,246.016s39.855-12.794,52.859-8.983,15.891,25.587-29.015,31.3-42.979,5.28-42.979,5.28-7.545-14.262-.948-21.611C398.52,248.194,407.672,246.016,407.672,246.016Z" transform="translate(-251.709 20.954)" fill="#2b221e"/>
    <path id="Path_670" data-name="Path 670" d="M435.66,235.778c-.316,2.056-1.094,4.628-2.739,5.407-2.559,1.211-6.172,1.842-8.246,3.819a13.133,13.133,0,0,0-2.307,3.279,2.877,2.877,0,0,1-.573.814.961.961,0,0,1-.923.238c-.546-.194-.635-.919-.629-1.5a14.645,14.645,0,0,1-1.992,1.219,6.794,6.794,0,0,1-2.329,1.379.71.71,0,0,1-.706-.135.8.8,0,0,1-.135-.46q-.129-1.669-.131-3.344a7.589,7.589,0,0,1,.579-3.452c1.067-2.125,3.435-3.247,5.554-4.322,4.748-2.405,3.779-4.305,3.923-4.205C427.482,236.246,432.045,235.717,435.66,235.778Z" transform="translate(-234.722 19.93)" fill="url(#linear-gradient-2)"/>
    <path id="Path_671" data-name="Path 671" d="M383.372,199.515s0-9.88,3.307-7.639c-.019-.013.623-.405.662-.429a8.909,8.909,0,0,0,.792-.527,12.172,12.172,0,0,0,1.433-1.26,29.683,29.683,0,0,0,2.43-2.936c.26-.347.606-.732,1.034-.673a.782.782,0,0,1,.587.523,1.533,1.533,0,0,1,.028.815c-.243,1.3-1.25,2.308-1.851,3.488a3.082,3.082,0,0,1,1.5.56,1.284,1.284,0,0,1,.443,1.441,3.194,3.194,0,0,1,1.585.842,1.632,1.632,0,0,1,.111,1.887,1.275,1.275,0,0,1,1.177,1.139,3.092,3.092,0,0,1-.38,1.726,26.061,26.061,0,0,1-1.4,2.313,8.514,8.514,0,0,1-1.7,1.761c-.936.854-1.892,1.692-2.9,2.47a11.562,11.562,0,0,1-1.344.956Z" transform="translate(-252.564 -7.452)" fill="url(#linear-gradient-3)"/>
    <path id="Path_672" data-name="Path 672" d="M372.272,225.478c2.479-9.251,7.357-17.612,14.949-31.553,8.031-.313,12.643,6.423,12.643,6.423s-7.282,20.95-11.176,30.085-10.016,7.956-10.739,7.759S369.217,236.877,372.272,225.478Z" transform="translate(-259.226 -3.006)" fill="#f2a188"/>
    <path id="Path_673" data-name="Path 673" d="M471.937,254.114l-4.052,11.933s-10.238,5.739-17.183-.521c-4.009-10.368-4.081-12.39-4.081-12.39Z" transform="translate(-216.83 30.453)" fill="#dca35f"/>
    <path id="Path_674" data-name="Path 674" d="M473.769,252.529a37.717,37.717,0,0,1-2.412,6c-1.149,1.925-19.171,2.477-23.606-.848-2.086-4.955-1.967-5.659-1.967-5.659Z" transform="translate(-217.303 29.822)" fill="#f3cc97"/>
    <path id="Path_675" data-name="Path 675" d="M474.108,252.427l-.327.848s-1.825,2.216-9.65,2.02-17.3-.038-18.335-2.529S468.826,249.884,474.108,252.427Z" transform="translate(-217.314 29.076)" fill="#dca25f"/>
    <path id="Path_676" data-name="Path 676" d="M470.68,252.179l-.268.512s-1.5,1.34-7.937,1.221-14.226-.02-15.075-1.527S466.336,250.642,470.68,252.179Z" transform="translate(-216.404 29.322)" fill="#6e502d"/>
    <path id="Path_677" data-name="Path 677" d="M455.295,259.263a33.069,33.069,0,0,1,12.755-16.654c3.081-2.069,6.75-3.648,10.424-3.135a4.607,4.607,0,0,1,2.969,1.4,3.954,3.954,0,0,1-.045,4.571,9.791,9.791,0,0,1-3.8,3.016c-6.7,3.52-15.451,4.088-19.119,10.7-.293.524-2.845-1.224-3.094-.676" transform="translate(-211.929 22.679)" fill="#219864"/>
    <path id="Path_678" data-name="Path 678" d="M452.836,258.879a10.9,10.9,0,0,1,4.542,3.46c1.061,1.448,2.6,1.922,4.337,2.344a.45.45,0,0,0,.656-.358c.427-1.265.6-2.606,1.083-3.85a21.324,21.324,0,0,1,2.938-5.135,11.865,11.865,0,0,0,2.3-7.7c-.837,2.783-3.424,3.4-5.834,4.224-.678.232-.973.444-1.122-.29-.194-.948.563-2.415.828-3.337.269-.939.538-1.878.734-2.836a18.915,18.915,0,0,0,.354-2.734,8.517,8.517,0,0,0-.216-2.768,7.271,7.271,0,0,0-.959-2.011,10.742,10.742,0,0,0-3.812-3.5,3.125,3.125,0,0,1-.64,2.487,15,15,0,0,1-1.7,2.731,1.116,1.116,0,0,1-1.072.307,1.362,1.362,0,0,1-.618-.52,12.9,12.9,0,0,1-1.283-2.679,10.683,10.683,0,0,0-7.551-5.44,1.477,1.477,0,0,0-1.56.848,7.3,7.3,0,0,0-.771,6,6.88,6.88,0,0,0,1.329,2.67c.812.848,1.775,1.3,2.413,2.369.837,1.4-2.448.664-2.909.524a7.742,7.742,0,0,1-2.255-.973,2.831,2.831,0,0,1-1.275-2.019,6.706,6.706,0,0,0-2.031,4.682c.055,4.592,4.786,4.7,8.058,5.883a3.77,3.77,0,0,1-2.573,1.438,3.474,3.474,0,0,1-2.283-.7c.03.02.011,1.434.061,1.626a3.874,3.874,0,0,0,.817,1.542,6.036,6.036,0,0,0,3.4,1.823A39.274,39.274,0,0,1,452.836,258.879Z" transform="translate(-221.285 18.101)" fill="#219864"/>
    <path id="Path_679" data-name="Path 679" d="M457.547,266.5c2.291-1.263,3.452-3.961,3.737-6.564s-.131-5.225-.164-7.842a17.711,17.711,0,0,1,1.485-7.781,39.007,39.007,0,0,1,2.912-4.67,13.5,13.5,0,0,0,2.255-4.984,5.844,5.844,0,0,0-1.355-5.124,7.073,7.073,0,0,0-3.626-1.711,10.086,10.086,0,0,0-4.122-.113,2.446,2.446,0,0,0-1.075.446,2.353,2.353,0,0,0-.637.973c-1.072,2.675-.116,5.668.505,8.481a6.7,6.7,0,0,1-.114,4.355c-.654,1.346-2.038,2.146-3.3,2.947s-2.568,1.819-2.876,3.282a4.434,4.434,0,0,0,.709,3.125c.565.936,1.319,1.742,1.972,2.618a14.513,14.513,0,0,1,2.131,12.894" transform="translate(-214.297 15.993)" fill="#44af7e"/>
    <path id="Path_683" data-name="Path 683" d="M447.727,181.12l21.516-2.234,8.26-19.033" transform="translate(-216.204 -22.25)" fill="none" stroke="#eff1f8" stroke-miterlimit="10" stroke-width="1.676"/>
    <path id="Path_684" data-name="Path 684" d="M408.176,136.992a1.789,1.789,0,0,0-.017.272.86.86,0,0,0,.2.613.669.669,0,0,0,.5.2,1.612,1.612,0,0,0,1.225-.654,4.906,4.906,0,0,0,.9-1.7,6.823,6.823,0,0,0,.341-2.136,3.9,3.9,0,0,0-.563-2.1,3.741,3.741,0,0,0-1.6-1.413,5.489,5.489,0,0,0-2.418-.5,8.842,8.842,0,0,0-3.949.869,6.7,6.7,0,0,0-2.793,2.51,7.2,7.2,0,0,0-1.02,3.875,5.615,5.615,0,0,0,.527,2.418,4.236,4.236,0,0,0,1.653,1.82,5.267,5.267,0,0,0,2.825.7,7.487,7.487,0,0,0,2.111-.246,8.529,8.529,0,0,0,1.72-.759.708.708,0,0,1,.324-.1c.225,0,.4.142.51.426a.466.466,0,0,1,.05.205q0,.373-.646.714a12.844,12.844,0,0,1-1.923.809,7.137,7.137,0,0,1-2.146.28,6.75,6.75,0,0,1-3.609-.884,5.343,5.343,0,0,1-2.094-2.307,7.163,7.163,0,0,1-.664-3.072,8.435,8.435,0,0,1,1.208-4.538,8.042,8.042,0,0,1,3.285-3,10.146,10.146,0,0,1,4.631-1.047,6.771,6.771,0,0,1,3.219.715A4.938,4.938,0,0,1,412,130.881a5.379,5.379,0,0,1,.689,2.707,7.072,7.072,0,0,1-.56,2.765,5.572,5.572,0,0,1-1.6,2.188,3.677,3.677,0,0,1-2.4.851,2.109,2.109,0,0,1-1.252-.391,1.639,1.639,0,0,1-.689-1,2.7,2.7,0,0,1-2.521,1.4,2.434,2.434,0,0,1-1.235-.341,2.515,2.515,0,0,1-.944-.986,3,3,0,0,1-.357-1.482,5.154,5.154,0,0,1,.552-2.23,5.542,5.542,0,0,1,1.5-1.931,3.128,3.128,0,0,1,2.017-.776,1.829,1.829,0,0,1,1.047.316,1.948,1.948,0,0,1,.706.876l.069-.46a.818.818,0,0,1,.282-.476.95.95,0,0,1,.654-.205q.918,0,.919.731a1.813,1.813,0,0,1-.016.274Zm-1.549-2.5a1.226,1.226,0,0,0-.374-1,1.49,1.49,0,0,0-.969-.307,1.605,1.605,0,0,0-1.169.529,3.554,3.554,0,0,0-.8,1.319,4.537,4.537,0,0,0-.282,1.523,1.4,1.4,0,0,0,.307.98,1.1,1.1,0,0,0,.851.332,1.644,1.644,0,0,0,1-.332,2.956,2.956,0,0,0,.748-.8,3.522,3.522,0,0,0,.418-.876A4.5,4.5,0,0,0,406.627,134.489Z" transform="translate(-244.513 -40.11)" fill="#81d9b1"/>
    <g transform="matrix(1, 0, 0, 1, 64.77, 88.13)" filter="url(#Path_686)">
      <path id="Path_686-2" data-name="Path 686" d="M449.97,193.165h-3.54v-3.542a1.892,1.892,0,1,0-3.784,0v3.542H439.1a1.893,1.893,0,1,0,0,3.786h3.542v3.54a1.892,1.892,0,1,0,3.784,0v-3.54h3.54a1.893,1.893,0,1,0,0-3.786Z" transform="translate(-286.91 -94.63)" fill="#769eea"/>
    </g>
    <path id="Path_687" data-name="Path 687" d="M457.105,141.762a10.335,10.335,0,0,1-2.117,2.937,3.885,3.885,0,0,1-2.7,1.25,2.792,2.792,0,0,1-1.686-.457,1.7,1.7,0,0,1-.626-1.468,1.317,1.317,0,0,1,.387-1.083,2.511,2.511,0,0,1,.842-.457,4.961,4.961,0,0,0,.651-.243,2.161,2.161,0,0,0,1.346-1.923,1.189,1.189,0,0,0-.5-.939,2.048,2.048,0,0,0-1.326-.41,2.463,2.463,0,0,0-1.346.338,2.2,2.2,0,0,1-.892-.628,1.8,1.8,0,0,1-.313-1.153,2.724,2.724,0,0,1,.721-1.806,5.361,5.361,0,0,1,1.782-1.347,4.762,4.762,0,0,1,2.069-.507,4.261,4.261,0,0,1,3.321,1.326,5.419,5.419,0,0,1,1.2,3.778A6.754,6.754,0,0,1,457.105,141.762Zm10.637,0a10.3,10.3,0,0,1-2.117,2.937,3.885,3.885,0,0,1-2.7,1.25,2.794,2.794,0,0,1-1.684-.457,1.694,1.694,0,0,1-.628-1.468,1.327,1.327,0,0,1,.387-1.083,2.512,2.512,0,0,1,.842-.457,4.743,4.743,0,0,0,.649-.243,2.159,2.159,0,0,0,1.349-1.923,1.191,1.191,0,0,0-.505-.939,2.04,2.04,0,0,0-1.324-.41,2.472,2.472,0,0,0-1.347.338,2.2,2.2,0,0,1-.891-.628,1.79,1.79,0,0,1-.313-1.153,2.724,2.724,0,0,1,.721-1.806,5.324,5.324,0,0,1,1.781-1.347,4.775,4.775,0,0,1,2.071-.507,4.265,4.265,0,0,1,3.321,1.326,5.427,5.427,0,0,1,1.2,3.778A6.736,6.736,0,0,1,467.742,141.762Z" transform="translate(-215.584 -36.932)" fill="#fa7070"/>
    <path id="Path_680" data-name="Path 680" d="M452.219,171.762a4.371,4.371,0,1,0,.344,6.171A4.372,4.372,0,0,0,452.219,171.762Z" transform="translate(-217.782 -16.15)" fill="#81d8b1"/>
    <path id="Path_681" data-name="Path 681" d="M464.451,170.9a2.9,2.9,0,1,0,.227,4.089A2.894,2.894,0,0,0,464.451,170.9Z" transform="translate(-209.482 -16.424)" fill="#81d8b1"/>
    <path id="Path_682" data-name="Path 682" d="M468.745,159.109a1.938,1.938,0,1,0,.153,2.737A1.938,1.938,0,0,0,468.745,159.109Z" transform="translate(-206.155 -22.949)" fill="#81d8b1"/>
    <text id="_" data-name="???" transform="translate(205.373 134)" fill="#867ab4" font-size="16" font-family="AmericanTypewriter, American Typewriter"><tspan x="0" y="0">???</tspan></text>
  </g>
</svg>
