<svg xmlns="http://www.w3.org/2000/svg" xmlns:xlink="http://www.w3.org/1999/xlink" width="199.493" height="218.895" viewBox="0 0 199.493 218.895">
  <defs>
    <filter id="Path_690" x="0" y="0" width="199.493" height="218.895" filterUnits="userSpaceOnUse">
      <feOffset dy="2" input="SourceAlpha"/>
      <feGaussianBlur stdDeviation="2.5" result="blur"/>
      <feFlood flood-opacity="0.333"/>
      <feComposite operator="in" in2="blur"/>
      <feComposite in="SourceGraphic"/>
    </filter>
    <filter id="Path_560-2" x="0.221" y="11.528" width="186.681" height="170.326" filterUnits="userSpaceOnUse">
      <feOffset dy="2" input="SourceAlpha"/>
      <feGaussianBlur stdDeviation="2.5" result="blur-2"/>
      <feFlood flood-opacity="0.502"/>
      <feComposite operator="in" in2="blur-2"/>
      <feComposite in="SourceGraphic"/>
    </filter>
  </defs>
  <g id="Group_127" data-name="Group 127" transform="translate(-67.5 -66.905)">
    <g transform="matrix(1, 0, 0, 1, 67.5, 66.9)" filter="url(#Path_690)">
      <path id="Path_690-2" data-name="Path 690" d="M213.243,267.472s-22.093-73.845,45.42-124.118c0,0,63.232-54.581,100.746-36.788a18.212,18.212,0,0,1,10.248,12.958c1.562,8.345.241,22.721-14.789,44.007,0,0-8.8,8.29-4.493,13.575s19.36-5.285,19.36-5.285,25.649-10.379,24.508,28.467A91.577,91.577,0,0,1,371.379,257.9c-16.862,19.215-46.861,42.033-96.9,48.511-26.624,3.446-52.421-11.9-60.639-37.021Q213.528,268.447,213.243,267.472Z" transform="translate(-202.29 -97.5)" fill="#867eb4"/>
    </g>
    <g id="Group_79" data-name="Group 79" transform="translate(-134.785 -33)">
      <g transform="matrix(1, 0, 0, 1, 202.29, 99.9)" filter="url(#Path_560-2)">
        <path id="Path_560-2-2" data-name="Path 560-2" d="M381.682,214.115a56.51,56.51,0,0,1-.4,7.526,67.41,67.41,0,0,1-3.321,13.906,75.144,75.144,0,0,1-9.736,19.209,6.547,6.547,0,0,1-.446.511,2.516,2.516,0,0,1-1.431.345c-1.724-.013-3.449.038-5.175-.026-1.071-.092-2.23.388-3.184-.482a4.178,4.178,0,0,1-.2-1.816c-.007-4.766,0-9.532-.006-14.3,0-1.566-.048-1.6-1.619-1.624a6.987,6.987,0,0,1-1.378-.073c-.352-.075-.691-.2-.679-.645s.36-.555.707-.623a18.1,18.1,0,0,1,2.069-.1.579.579,0,0,0,.482-.216,5.5,5.5,0,0,0-2.077-.207c-.577-.067-1.228-.068-1.263-.867-.038-.876.643-.919,1.269-.979.3-.03.614-.014.921-.02,1.6-.032,1.823-.362,1.353-2-.4-.436-.924-.306-1.408-.31-4.246-.035-8.492.067-12.739.037a14.485,14.485,0,0,1-1.718-.05,1.521,1.521,0,0,1-1.122-.887,77.041,77.041,0,0,0-7.589-9.991c-2.891-3.435-6.012-6.693-8.291-10.6a5.978,5.978,0,0,1-.883-4.192,27.983,27.983,0,0,0,.049-4.255c-.028-.545.365-.807.735-1.08a3.326,3.326,0,0,0,1.417-3.809,1.247,1.247,0,0,1,.588-1.624c-.676.636-1.526,1.344-2.744.514a27.117,27.117,0,0,1-.348-4.684,22.058,22.058,0,0,0-3.792-11.19,1.275,1.275,0,0,1-.142-.312,4,4,0,0,0-2.111-2.178c-1.382-.837-2.636-1.86-4.045-2.659a21.865,21.865,0,0,0-10.987-3.062,22.464,22.464,0,0,0-13.693,4.781,30.842,30.842,0,0,0-6.05,6.775c-.913,1.244-1.932,2.392-2.917,3.572a10.554,10.554,0,0,1-5.909,3.584,7.336,7.336,0,0,0-2.049.756,4.092,4.092,0,0,0-2.107,4.37,68.983,68.983,0,0,0,1.966,8.182c.164.633.346,1.261.472,1.9a4.806,4.806,0,0,1-2.328,5.51c-.9.2-1.208,1.04-1.755,1.623a33.16,33.16,0,0,1-2.633,2.735,68.5,68.5,0,0,0-7.351,8.532,21.928,21.928,0,0,0-3.921,8.634,14.821,14.821,0,0,0,2.08,11.035,34.781,34.781,0,0,0,2.843,3.907c.241.283.593.552.225.983a2.081,2.081,0,0,1-1.216.264q-2.925.02-5.851,0a2.177,2.177,0,0,1-1.314-.318,4.2,4.2,0,0,1-.829-1.874,34.089,34.089,0,0,0-3.7-7.954,20.06,20.06,0,0,1-1.622,5.581,10.837,10.837,0,0,1-2.867,3.714,1.686,1.686,0,0,0-.636,2.011,31.835,31.835,0,0,1,1.334,9.679,30.744,30.744,0,0,1-2.6,11.641,2.377,2.377,0,0,1-.691,1.047.6.6,0,0,1-.817-.228h0a1.234,1.234,0,0,0-.906-1.492,1.215,1.215,0,0,0-.329-.034,4.142,4.142,0,0,1-1.4-.524c-.3-.16-.674-.316-.529-.761s.53-.527.938-.463a9.482,9.482,0,0,1,1.76.535.987.987,0,0,0,1.491-.715,26.546,26.546,0,0,0,1.549-8.225,30.877,30.877,0,0,0-.531-7.561c-.13-.533-.2-1.062-.935-1.1-3.463-.162-6.283-1.823-8.934-3.87-1.035-.8-1.073-.827-1.827.271-.907,1.323-2.3,2.141-3.336,3.322-.186.211-.438.344-.66,0-.153-.995-.824-1.812-1-2.789a8.494,8.494,0,0,1,.551-4.383,4.555,4.555,0,0,0-2.533-5.864,3.772,3.772,0,0,1-.49-.187c-1.911-.559-3.1.552-4.063,1.9-1.988,2.8-2.734,6.056-3.255,9.378-.073.469.21.9.194,1.361a1.19,1.19,0,0,1-.225.478,4.9,4.9,0,0,0-.235,2.81c.352,5.3,2.1,10.006,6.066,13.717.942,1.06,1.138,2.476,1.746,3.7a.57.57,0,0,1-.2.784.552.552,0,0,1-.136.06,60.66,60.66,0,0,1-7.543.1,1.176,1.176,0,0,1-.726-.308,87.891,87.891,0,0,1-2.345-13.068c-.324-3.277-.608-6.552-.651-9.842a134.759,134.759,0,0,1,.884-16.622,129.923,129.923,0,0,1,3.255-18.836,74.112,74.112,0,0,1,4.419-12.081,19.126,19.126,0,0,1,1.824-3.71.915.915,0,0,1,.821.319,8.179,8.179,0,0,0,5.481,1.713,22.085,22.085,0,0,0,4.354-.165c.674-.136.863-.424.487-1.017-1.072-1.689-1.768-3.566-2.678-5.336a6.643,6.643,0,0,0-3.1-2.964c-.392-.192-.915-.243-1.056-.787a5.2,5.2,0,0,0,1.445-1.9,137.3,137.3,0,0,1,10.879-14.646,157.532,157.532,0,0,1,12.836-13.525,198.6,198.6,0,0,1,23.617-18.957,177.6,177.6,0,0,1,24.843-14.22,106.674,106.674,0,0,1,20.307-7.292,78.137,78.137,0,0,1,10.947-1.813,39.874,39.874,0,0,1,19.219,2.84c5.761,2.373,10.1,6.251,11.9,12.436a24.377,24.377,0,0,1,.548,10.559,48.312,48.312,0,0,1-5.135,15.174,61.616,61.616,0,0,1-8.371,12.336c-1.919,2.19-4.2,4.045-5.857,6.479a14.533,14.533,0,0,0-2.486,5.132,4.666,4.666,0,0,0,2.337,5.149,6.236,6.236,0,0,0,5.1.411c2.746-.872,5.371-2.049,8.064-3.055a24.563,24.563,0,0,1,8.137-1.8,12.49,12.49,0,0,1,8.3,2.854c3.712,3.021,5.677,7.14,7.394,11.44a54.777,54.777,0,0,1,2.447,8.958,5.758,5.758,0,0,1,.053.919c-.354.333-.726.109-1.081.017a4.889,4.889,0,0,0-2.169-.087,1.269,1.269,0,0,0-.9,2.073,5.509,5.509,0,0,0,.8.976c.7.738.573,1.141-.428,1.4a8.906,8.906,0,0,1-2.063.1,3.185,3.185,0,0,0-1.564.3,1.091,1.091,0,0,0-.124,2.009c1.294.955,1.345,1.227.436,2.561a10.6,10.6,0,0,0-1.147,1.856,1.2,1.2,0,0,0,.425,1.619c.565.386,1.028.077,1.437-.3.679-.63,1.116-1.463,1.742-2.141.913-.988,1.261-.964,2.023.133a5.441,5.441,0,0,0,.329.471c.251.291.5.623.943.548.482-.082.653-.488.811-.887a4.775,4.775,0,0,0-.122-2.379C380.471,214.277,380.728,214.026,381.682,214.115Z" transform="translate(-202.29 -99.9)" fill="#edf1f8"/>
      </g>
    </g>
    <g id="Group_80" data-name="Group 80" transform="translate(-134.785 -33)">
      <path id="Path_561-2" data-name="Path 561-2" d="M276.923,308.317a96.374,96.374,0,0,1-13.659,2.547,45.272,45.272,0,0,1-7.339.466c-2.43-.9-4.359-2.6-6.429-4.07-.84-.6-1.541-1.361-2.371-1.971a32.076,32.076,0,0,1-9.972-14.83,13.314,13.314,0,0,1-.294-7.62c1.2-4.2,4.273-6.523,8.2-7.913a12.375,12.375,0,0,1,2.452-.646,23.118,23.118,0,0,1,11.039.544c.832.248,1.676.458,2.522.657,3.606,1.052,7.2,2.13,10.773,3.308,1.723.5,3.412,1.119,5.15,1.578,2.265.765,4.568,1.406,6.861,2.081.408.124.829.2,1.239.312a71.973,71.973,0,0,0,15.464,3.033,12.057,12.057,0,0,0,3.316-.339,155.961,155.961,0,0,0,19.49-6c8.593-2.961,17.114-6.163,26.067-7.937a9.713,9.713,0,0,1,2.619-.292.5.5,0,0,1,.286.23,91.684,91.684,0,0,1-9.492,7.3A205.241,205.241,0,0,1,291.3,304.249a1.148,1.148,0,0,1-.774.136,2.634,2.634,0,0,1-1.767-.722,160.069,160.069,0,0,0-18.939-11.217c-4.931-2.453-10-4.59-15.515-5.386a5.986,5.986,0,0,0-.8-.108c-.844-.009-1.684-.136-2.246-.09a15.376,15.376,0,0,1,6.9,1.977,25.3,25.3,0,0,1,7.526,6.191c3.416,3.9,6.786,7.847,10.319,11.647C276.437,307.14,276.982,307.566,276.923,308.317Z" fill="#3f3f5f"/>
    </g>
    <g id="Group_81" data-name="Group 81" transform="translate(-134.785 -33)">
      <path id="Path_562-2" data-name="Path 562-2" d="M247.356,274.584a22.471,22.471,0,0,0-4.442,1.557c-4.966,2.556-7.089,7.251-5.8,12.979a28.447,28.447,0,0,0,7.245,13.033c.96,1.046,2,2.019,3,3.025a8.063,8.063,0,0,1-.012,5.51,23.4,23.4,0,0,1-8.253-3.061,47.4,47.4,0,0,1-11.136-8.477,57.025,57.025,0,0,1-11-16.218,2.043,2.043,0,0,1,1.532-.338c1.652-.018,3.3.007,4.958-.012,1.294-.013,1.4-.118,1.417-1.364.016-1.268-.021-2.538.012-3.806.023-.854-.264-1.282-1.182-1.26-3.112.072-6.226-.119-9.335.124l-1.348-4.392,8.581-.076a1.713,1.713,0,0,1,1.2-.3c4.988-.023,9.977,0,14.966-.014a1.576,1.576,0,0,1,.783.147.808.808,0,0,0,.793.177c.85-.536,1.8-.291,2.7-.31,1.944-.042,1.971-.04,1.972-2.025q.006-9.573,0-19.143a12.941,12.941,0,0,1,.048-1.5c.072-.611.375-1.041,1.009-1.059a28.147,28.147,0,0,1,5.854.112,5.594,5.594,0,0,0,2.483.184c1.642.039,3.287.019,4.93.006.364,0,.776.133,1.067-.234.437-.276.721.047,1,.282.5.419,1.009.811,1.527,1.2a4.865,4.865,0,0,0,5.134.845.771.771,0,0,1,.663-.035,1.042,1.042,0,0,1-.008,1.086q-.283.75-.531,1.514c-.555,1.71-.553,1.7,1.084,2.419.55.241,1.2.41,1.159,1.221-1.626,3.738-3.328,7.441-4.928,11.189-.377.882-1.121.945-1.917.946q-6.8.006-13.61,0a8.209,8.209,0,0,0-1.152.03c-.215.031-.477.018-.557.379.378.4.9.287,1.364.289,4.114.011,8.228,0,12.341.009,2.4.006,2.721.47,1.758,2.643a27.044,27.044,0,0,1-1.742,3.89l-2.314-.638a2.425,2.425,0,0,1-.342-1.653c-.006-.657-.276-.994-.957-1q-4.311-.021-8.625,0c-.652,0-1,.275-1.011.954A1.443,1.443,0,0,1,247.356,274.584Z" fill="#f9d19c"/>
    </g>
    <g id="Group_82" data-name="Group 82" transform="translate(-134.785 -33)">
      <path id="Path_563-2" data-name="Path 563-2" d="M360.9,263.516l-4.332,4.217c-.036.013-.069.028-.1.038-.413.117-.671-.657-1.08-.247-.386.388.443.653.218,1.082l-1.359,1.215c-.279-.017-.424-.293-.7-.36-.052.293.377.451.212.764l-1.419,1.231h-.013c-.32-.644-.9-.481-1.416-.419a62.364,62.364,0,0,0-7.419,1.548c-4.914,1.213-9.577,3.23-14.463,4.534-1.484.4-2.812,1.222-4.291,1.645a2.181,2.181,0,0,1-1.563.149,1.027,1.027,0,0,1-.438-.654c-1.081-4.4-2.2-8.8-2.3-13.366a3.786,3.786,0,0,1,.131-1.011c.1-.3.323-.467.61-.306a25.932,25.932,0,0,1,4.713,2.859c.02.017.009.073.013.11-.2.473-.772.257-1.148.585,4.178,1.153,8.1,2.908,12.469,3.085a20.256,20.256,0,0,0,7.389-.683c1.464-.5,3.01-1.1,3.657-2.742.721-1.823.062-3.462-.8-5.054-.259-.478-.627,0-.926-.123a.549.549,0,0,1-.3-.188c-.724-1.666-1.2-3.427-1.9-5.1-.153-.364-.318-.816.231-1.072a19.228,19.228,0,0,1,4.132-.13c2.724.022,5.449.022,8.173.023a2.825,2.825,0,0,1,1.846.5.667.667,0,0,1,.316.691c-.067.234-.323.3-.55.364a1.8,1.8,0,0,1-.457.038h.168a1.913,1.913,0,0,0,.987-.267c.829-.495,1.07-.393,1.143.593.09,1.225.054,2.457.024,3.684A5.308,5.308,0,0,0,360.9,263.516Z" fill="#f9d19c"/>
    </g>
    <g id="Group_83" data-name="Group 83" transform="translate(-134.785 -33)">
      <path id="Path_564-2" data-name="Path 564-2" d="M276.925,308.322a60.754,60.754,0,0,0-4.833-5.53c-3.113-3.433-5.908-7.163-9.322-10.314a18.459,18.459,0,0,0-12.109-5.38,2.144,2.144,0,0,1-.451-.059c-.05-.013-.08-.1-.229-.316a16.86,16.86,0,0,1,4.127-.006c6.6,1.022,12.569,3.749,18.426,6.821a187.444,187.444,0,0,1,17.1,10.342c.281.189.589.338.884.505a37.463,37.463,0,0,1-5.739,1.9A75.572,75.572,0,0,1,276.925,308.322Z" fill="#202036"/>
    </g>
    <g id="Group_84" data-name="Group 84" transform="translate(-134.785 -33)">
      <path id="Path_565-2" data-name="Path 565-2" d="M360.891,263.509a1.275,1.275,0,0,1-.923-1.478c.06-1.9.019-3.808-.093-5.773a1.679,1.679,0,0,1-1.287.613c-4-.03-8-.016-12-.019-.145,0-.291-.038-.433-.311h12.771a1.43,1.43,0,0,0-1.592-1.084c-4.345.026-8.691.012-13.037.012a.941.941,0,0,1-.611-.638,57.626,57.626,0,0,0-3.43-6.493,2.118,2.118,0,0,1-.367-1.3c.679-2.115,1.664-4.12,2.171-6.3.688-2.956.777-5.844-.66-8.632-.168-.327-.388-.686-.1-1.073q7.938-.018,15.874-.029c.328,0,.7-.124.958.217a2.08,2.08,0,0,1-1.523.374c-1.649.014-3.3.023-4.947,0-.873-.013-1.232.331-1.23,1.216q.014,10.3,0,20.6c0,.878.342,1.24,1.222,1.227,1.649-.023,3.3-.015,4.947,0a2.078,2.078,0,0,1,1.526.369c.971.526,2.031.066,3.034.27a1.243,1.243,0,0,1,.323.95,61.626,61.626,0,0,1-.115,6.863A.625.625,0,0,1,360.891,263.509Z" fill="#f9d19c"/>
    </g>
    <g id="Group_85" data-name="Group 85" transform="translate(-134.785 -33)">
      <path id="Path_566-2" data-name="Path 566-2" d="M381.679,214.117c-.962-.042-.941.561-.8,1.232a4.709,4.709,0,0,1,.139,2.385,1.5,1.5,0,0,1-1.123,1.189c-.65.136-.96-.349-1.25-.817-1.044-1.681-1.033-1.673-2.271-.051a18.884,18.884,0,0,1-1.567,1.836,1.11,1.11,0,0,1-1.544.282h0a1.5,1.5,0,0,1-.7-1.786,8.91,8.91,0,0,1,1.555-2.544c.557-.741.78-1.348-.4-1.686a1.342,1.342,0,0,1-.962-1.42,1.464,1.464,0,0,1,1.058-1.369,8.775,8.775,0,0,1,2.624-.223,8.8,8.8,0,0,0,.918-.069c.252-.052.6-.123.7-.3.17-.292-.211-.423-.382-.611-.686-.753-1.691-1.462-1.076-2.646s1.829-1.113,2.959-.96a15.175,15.175,0,0,1,1.669.413c2.183,1.129,2.181,1.127,3.846-.7q1.379-1.515,2.767-3.024l.231.2-2.509,2.8c-.179.2-.366.394-.545.6-.383.43-.96.811-1.092,1.309-.149.565.629.841.934,1.3a4.418,4.418,0,0,1,.4,4.388c-.467,1.116-1.093,1.316-2.2.774C382.613,214.4,382.235,214.008,381.679,214.117Z" fill="#f29618"/>
    </g>
    <g id="Group_86" data-name="Group 86" transform="translate(-134.785 -33)">
      <path id="Path_567-2" data-name="Path 567-2" d="M224.7,189.474a8.132,8.132,0,0,1,5.185,5.151A24.111,24.111,0,0,0,232.1,198.9c.282.441.381.746-.283.854a18.313,18.313,0,0,1-8.535-.232,6.845,6.845,0,0,1-2.886-1.808,9.158,9.158,0,0,1-1.312-6.291,2.771,2.771,0,0,0-.517-2.124,4.633,4.633,0,0,1-1.043-2.348c.448.741.907,1.476,1.339,2.226a.736.736,0,0,0,.929.446A11.229,11.229,0,0,1,224.7,189.474Z" fill="#f08a13"/>
    </g>
    <g id="Group_87" data-name="Group 87" transform="translate(-134.785 -33)">
      <path id="Path_568-2" data-name="Path 568-2" d="M214.361,276.271c.1-.545.521-.468.9-.468,3.03,0,6.06.018,9.09-.013.735-.009.908.289.9.956-.032,1.765-.036,3.53,0,5.295.014.7-.218.944-.924.931-2.454-.042-4.908-.034-7.363-.045A56.721,56.721,0,0,1,214.361,276.271Z" fill="#dca160"/>
    </g>
    <g id="Group_88" data-name="Group 88" transform="translate(-134.785 -33)">
      <path id="Path_569-2" data-name="Path 569-2" d="M361.374,263.1c-.275-.172-.245-.451-.243-.715q.016-3.549.036-7.1l6.612-.018A55.309,55.309,0,0,1,361.374,263.1Z" fill="#dca160"/>
    </g>
    <g id="Group_89" data-name="Group 89" transform="translate(-134.785 -33)">
      <path id="Path_570-2" data-name="Path 570-2" d="M247.347,310.688l.012-5.51a73.407,73.407,0,0,0,8.565,6.157A31.633,31.633,0,0,1,247.347,310.688Z" fill="#dca15f"/>
    </g>
    <g id="Group_90" data-name="Group 90" transform="translate(-134.785 -33)">
      <path id="Path_571-2" data-name="Path 571-2" d="M355.6,268.605c-.267-.5-1.388-.939-.139-1.539.62-.3.609.645,1.1.665A2.336,2.336,0,0,1,355.6,268.605Z" fill="#f9d19c"/>
    </g>
    <g id="Group_91" data-name="Group 91" transform="translate(-134.785 -33)">
      <path id="Path_572-2" data-name="Path 572-2" d="M353.755,270.222c-.076-.446-.836-.338-.735-.888.026-.145.27-.367.4-.356.486.037.567.534.821.839A.706.706,0,0,1,353.755,270.222Z" fill="#f9d19c"/>
    </g>
    <g id="Group_92" data-name="Group 92" transform="translate(-134.785 -33)">
      <path id="Path_573-2" data-name="Path 573-2" d="M341.307,231.039c2.585,4.705,1.57,9.333-.3,13.941-.287.707-.6,1.406-.894,2.109-.164.3-.4.19-.54.029-.544-.648-1.23-1.22-1.266-2.167a7.628,7.628,0,0,1,1.079-2.15,1.73,1.73,0,0,0-.124-2.019,84.675,84.675,0,0,0-6.9-8.79,49.572,49.572,0,0,0-9.151-7.86,40.156,40.156,0,0,0-3.6-2.06c-.429-.225-.954-.372-1.042-.976a16.237,16.237,0,0,1,1.166-3.488c.838-2.272,1.64-4.557,2.517-6.813a6.952,6.952,0,0,0,.24-.771c.4-1.539.225-1.872-1.325-1.763-3.1.218-6.215.078-9.311.383-.763.075-1.533-.032-2.3.039-.489-.463-.07-.841.147-1.2.576-.953,1.258-1.838,1.742-2.848a5.243,5.243,0,0,0-.606-5.931c-2.076-2.669-4.418-5.116-6.468-7.8a28.952,28.952,0,0,1-3.518-5.8,10.4,10.4,0,0,1-.916-5.165c.064-.743-.183-.883-.846-.593a8.791,8.791,0,0,0-3.325,2.774c-1.831,2.313-2.611,5.119-3.631,7.8a38.394,38.394,0,0,0-2.179,9.17,8.9,8.9,0,0,0,4.9,9.141,15.193,15.193,0,0,1,1.721.932c.534.393,1.057.82.754,1.617-.344.341-.577.022-.765-.176a3.009,3.009,0,0,0-2.551-.812c-2.416.147-4.825.36-7.252.308-1.041-.022-1.365.42-1.1,1.489a43.53,43.53,0,0,0,1.473,4.494,43.092,43.092,0,0,1,1.438,4.379c-.152.705-.769.919-1.308,1.183-1.485.727-2.864,1.628-4.269,2.493a19.323,19.323,0,0,0-6.348,6.691,93.545,93.545,0,0,0-7.249,15.761c-.351.933-.712,1.864-1.034,2.808-.117.344-.17.777-.661.844a5.3,5.3,0,0,1-6.024-.67,13.142,13.142,0,0,0-2.275-1.728,24.84,24.84,0,0,1-3.936-5.269,15.31,15.31,0,0,1-1.1-12.372,29.263,29.263,0,0,1,5.747-9.7c2.435-2.945,5.189-5.578,7.838-8.314a9.605,9.605,0,0,1,1.589-1.5c2.1-1.613,3.008-3.53,2.16-6.267a54.389,54.389,0,0,1-2.262-9.037c-.357-2.759.528-4.289,3.145-5.273,1.038-.39,2.136-.627,3.167-1.032,2.458-.967,4.024-2.978,5.589-4.961a62.908,62.908,0,0,1,5.507-6.744,22.3,22.3,0,0,1,11.335-5.931c6.891-1.357,12.974.577,18.479,4.718.365.275.738.538,1.107.806a10.345,10.345,0,0,1,1.854,1.851c3.8,4.927,4.4,10.7,4.4,16.636a.913.913,0,0,1-.472.477,4.326,4.326,0,0,0-1.83,5.361c.163.439.358.492.773.329,1.476-.577,1.481-.564,1.5.937-.09,1.094.144,2.186,0,3.278a7.307,7.307,0,0,0,1.12,4.162,62.37,62.37,0,0,0,6.475,8.36C335.052,222.41,338.592,226.4,341.307,231.039Z" fill="#202036"/>
    </g>
    <g id="Group_93" data-name="Group 93" transform="translate(-134.785 -33)">
      <path id="Path_574-2" data-name="Path 574-2" d="M238.539,271.638a1.429,1.429,0,0,1-.878.2q-8.035-.015-16.072-.024c-.826-1.272-1-2.852-1.919-4.079-.73-3.243-.119-6.377.77-9.486a5.7,5.7,0,0,1,1.221-2.694q1.36-2.055,2.748-4.09c.128-.187.255-.391.532-.369a16.682,16.682,0,0,0,4.051-4.075c.422-.685.64-.79,1.3-.217a16.465,16.465,0,0,0,8.08,4.171.427.427,0,0,1,.112.027c.688.287,1.659-.344,2.107.429a6.139,6.139,0,0,1,.471,2.121,30.6,30.6,0,0,1-1.337,15.217c-.244.682-.553.935-1.256.686-.65-.23-1.321-.4-1.978-.612-.355-.115-.787-.421-.979.1s.407.438.656.556a5.127,5.127,0,0,0,1.523.507C238.825,270.146,239.234,270.579,238.539,271.638Z" fill="#47b382"/>
    </g>
    <g id="Group_94" data-name="Group 94" transform="translate(-134.785 -33)">
      <path id="Path_575-2" data-name="Path 575-2" d="M245.375,236.912c-.31,3.891-1.221,7.2-4.009,9.715-.976.879-1,.86-1.454-.337a59.891,59.891,0,0,0-12.306-19.311c-.286-.312-.584-.612-.875-.919-1.3-1.374-1.208-1.722.67-2.327a7.479,7.479,0,0,1,6.077.931,33.576,33.576,0,0,1,9,7.642c.758.865,1.424,1.812,2.154,2.7C245.175,235.66,245.56,236.339,245.375,236.912Z" fill="#47b383"/>
    </g>
    <g id="Group_95" data-name="Group 95" transform="translate(-134.785 -33)">
      <path id="Path_576-2" data-name="Path 576-2" d="M358.128,255.017c-2.378,0-4.756-.02-7.133.011-.689.01-.936-.2-.934-.914q.033-10.993,0-21.987c0-.722.26-.918.94-.909,2.378.03,4.755.012,7.133.012.144,2.8.144,2.8-2.555,2.8h-.46c-.4.016-.89-.113-.87.576.018.619.461.5.822.5.729.011,1.458-.008,2.186.008.394.008.894-.137.907.547.014.737-.51.631-.958.636-.767.009-1.534,0-2.3.006-.26,0-.6-.039-.608.343s.323.361.585.364c.8.008,1.612.029,2.416,0,.631-.026.885.2.881.857C358.149,243.579,358.142,249.3,358.128,255.017Z" fill="#dca15f"/>
    </g>
    <g id="Group_96" data-name="Group 96" transform="translate(-134.785 -33)">
      <path id="Path_577-2" data-name="Path 577-2" d="M239.589,250.371a15.27,15.27,0,0,1-7.9-3.4c-.275-.208-.517-.465-.8-.654a1.826,1.826,0,0,1-.882-2.089c.383-2.563-.932-4.586-2.544-6.419a9.886,9.886,0,0,0-1.587-1.5c-3.01-2.19-3.155-7.39-1.3-10.311.308-.484.525-.528.939-.1,6.5,6.752,11.786,14.254,14.539,23.34C240.253,249.888,240.49,250.5,239.589,250.371Z" fill="#47b383"/>
    </g>
    <g id="Group_97" data-name="Group 97" transform="translate(-134.785 -33)">
      <path id="Path_578-2" data-name="Path 578-2" d="M250.926,247.89c-1.7.414-3.425.113-5.138.175-1.459.053-1.462.012-1.462,1.518v20.656c0,1.591,0,1.593-1.644,1.59-1.114,0-2.229-.01-3.344-.014a37.927,37.927,0,0,0,2.532-8.222,31.971,31.971,0,0,0-1.009-14.343,1.322,1.322,0,0,1,.576-1.7c2.926-2.257,4.1-5.45,4.565-8.983.043-.327.056-.658.11-1.329A36.362,36.362,0,0,1,250.926,247.89Z" fill="#47b383"/>
    </g>
    <g id="Group_98" data-name="Group 98" transform="translate(-134.785 -33)">
      <path id="Path_579-2" data-name="Path 579-2" d="M320.982,130.169c1.519,1.381,2.888,2.58,4.2,3.839.535.516.844.6,1.433.012a4.1,4.1,0,0,1,4.765-.936c1.266.512,1.5,1.136.872,2.327-.071.136-.159.264-.232.4-.244.447-.479.921-.167,1.408.345.539.9.347,1.365.239a4.622,4.622,0,0,1,2.161-.107,1.45,1.45,0,0,1,1.233,1.217c.09.641-.393,1-.894,1.2-1.574.637-1.789.929-.125,2.141a16.449,16.449,0,0,1,1.776,1.461c.5.484.985,1.05.445,1.809a1.577,1.577,0,0,1-2.044.541,9.475,9.475,0,0,1-2.04-1.285c-1.22-.888-1.228-.89-1.945.388a1.488,1.488,0,0,1-2.715-.2,6.576,6.576,0,0,1-.229-2.276c-.039-.459-.033-.924-.107-1.376-.038-.24,0-.587-.335-.667-.27-.065-.368.223-.527.372-.252.236-.493.486-.756.707a1.688,1.688,0,0,1-1.9.432,1.965,1.965,0,0,1-1.017-1.707,7.713,7.713,0,0,1,1.137-4.281,1.049,1.049,0,0,0-.167-1.474.87.87,0,0,0-.108-.075c-1.233-1.04-2.4-2.151-3.6-3.239A1.1,1.1,0,0,1,320.982,130.169Z" fill="#ef8610"/>
    </g>
    <g id="Group_99" data-name="Group 99" transform="translate(-134.785 -33)">
      <path id="Path_580-2" data-name="Path 580-2" d="M214.126,250.629a2.964,2.964,0,0,1-.239-2.423,23.7,23.7,0,0,1,2.911-8.2,5.242,5.242,0,0,1,2.578-2.38c.7-.262,1.45-.542,2.148.064a22.9,22.9,0,0,1-.923,4.709,51.469,51.469,0,0,0-.76,7.179,26.245,26.245,0,0,0,.266,4c.1.923-.2,1.273-1.028,1.221C217.339,254.681,214.6,252.381,214.126,250.629Z" fill="#219865"/>
    </g>
    <g id="Group_100" data-name="Group 100" transform="translate(-134.785 -33)">
      <path id="Path_581-2" data-name="Path 581-2" d="M220.655,257.95a2.241,2.241,0,0,1-.188,1.532,15.673,15.673,0,0,0-.594,7.306c.064.33.143.689-.207.939-4.787-4.445-6.4-10.085-6.162-16.417.01-.267.072-.448.388-.4.76.541,1.151,1.415,1.848,2.023a6.781,6.781,0,0,0,3.5,1.822,1.244,1.244,0,0,1,1.254,1.217C220.563,256.627,221.026,257.259,220.655,257.95Z" fill="#219865"/>
    </g>
    <g id="Group_101" data-name="Group 101" transform="translate(-134.785 -33)">
      <path id="Path_582-2" data-name="Path 582-2" d="M224.942,251.089a38,38,0,0,1-3.181,4.571c-.155.376-.384.69-.837.647-.52-.049-.474-.5-.561-.864a16.7,16.7,0,0,1-.447-3.262c-.056-1.592-.1-3.178-.011-4.776a40.016,40.016,0,0,1,1.564-8.853.938.938,0,0,1,.318-.593c.377-.473.682-.089.972.1a5.186,5.186,0,0,1,1.938,6.089c-.722,1.967-1.112,3.921.223,5.823A1.165,1.165,0,0,1,224.942,251.089Z" fill="#219865"/>
    </g>
    <g id="Group_102" data-name="Group 102" transform="translate(-134.785 -33)">
      <path id="Path_583-2" data-name="Path 583-2" d="M323.871,202.129l-.073-.786c-.349-.113-.531.136-.739.265-1.478.92-1.488.927-1.763-.765a9.217,9.217,0,0,1-.038-2.532,3.3,3.3,0,0,1,2.763-2.861c1.312.27,2.3-.447,3.292-1.294.108.52-.17.577-.333.672a1.278,1.278,0,0,0-.691,1.671v0a3.568,3.568,0,0,1-1.741,4.232c-.209.14-.526.175-.547.518a1.366,1.366,0,0,1,.036,1.041c-.041.144.021-.024-.1.012C323.7,202.367,323.936,202.176,323.871,202.129Z" fill="#ec9020"/>
    </g>
    <g id="Group_103" data-name="Group 103" transform="translate(-134.785 -33)">
      <path id="Path_584-2" data-name="Path 584-2" d="M221.792,237.957a46.512,46.512,0,0,0-1.739,11.1,36.673,36.673,0,0,0,.464,6.182c.188,1.166.577,1.042,1.25.42l.1.055c-.381.722-1.175,1.264-.971,2.241h-.226c-.013-.115-.016-.23-.038-.343-.289-1.459-.566-2.654-2.52-3.021-1.9-.357-3.26-1.921-4.2-3.681l.229-.273a9.194,9.194,0,0,0,4.624,3.779c.851.257,1.2.282,1.065-.864a36.551,36.551,0,0,1,1.708-15.859Z" fill="#fcfcfc"/>
    </g>
    <g id="Group_104" data-name="Group 104" transform="translate(-134.785 -33)">
      <path id="Path_585-2" data-name="Path 585-2" d="M323.865,202.127l.13-.88a9.359,9.359,0,0,1-.009,4.584A19.036,19.036,0,0,1,323.865,202.127Z" fill="#fcfcfc"/>
    </g>
    <g id="Group_105" data-name="Group 105" transform="translate(-134.785 -33)">
      <path id="Path_586-2" data-name="Path 586-2" d="M319.618,178.817l-1.854-1.851A3.139,3.139,0,0,1,319.618,178.817Z" fill="#fcfcfc"/>
    </g>
    <g id="Group_106" data-name="Group 106" transform="translate(-134.785 -33)">
      <path id="Path_587-2" data-name="Path 587-2" d="M269.535,210.679a8.528,8.528,0,0,1-1.589,1.5C268.323,211.521,268.693,210.849,269.535,210.679Z" fill="#fcfcfc"/>
    </g>
    <g id="Group_107" data-name="Group 107" transform="translate(-134.785 -33)">
      <path id="Path_588-2" data-name="Path 588-2" d="M267.7,250.237a156.438,156.438,0,0,1,5.952-14.477c.512-1.031,1.084-2.033,1.584-3.07,2.57-5.341,6.785-8.928,12.063-11.4a12.333,12.333,0,0,0,1.156-.7,10.071,10.071,0,0,1,5.038-1.516,42.333,42.333,0,0,0,3.983,2.287c4.592,1.844,8.848,1.507,12.715-1.765a1.778,1.778,0,0,1,.7-.385,13.509,13.509,0,0,1,7.8,2.083c9.1,4.335,15.557,11.486,21.03,19.7a1.207,1.207,0,0,1,.113,1.537c-.5.766-.919,1.59-1.372,2.39-.368,1.716-1.5,3-2.48,4.368a16.9,16.9,0,0,1-4.83,4.878c-1.327.485-1.361.454-2.166-.649-.7-.956-1.287-1.991-2.077-2.88a.522.522,0,0,0-.441-.247,30.336,30.336,0,0,0-.084,3.593c-.049,1.374-.239,1.558-1.565,1.356a9.181,9.181,0,0,1-3.578-1.117,1.04,1.04,0,0,1-.1-.987,17.434,17.434,0,0,1,1.7-5.018c-.838,1.149-1.909,2.431-2.828,3.829a2.547,2.547,0,0,1-.9,1.028,1.2,1.2,0,0,1-1.083-.236,10,10,0,0,1-4.61-6.066,43.412,43.412,0,0,0-2.829-7.529,5.9,5.9,0,0,1-.479-1.17c-.1-1.384-.065-2.768-.1-4.152-.029-1.134-.241-1.377-1.363-1.389q-5.649-.063-11.3,0c-1.13.011-1.339.26-1.354,1.517-.032,2.923-.007,5.846-.013,8.769a10.584,10.584,0,0,1-.064,1.725c-.139.743-.715.787-1.31.846-.751.073-1.684-.007-1.985.847-.289.819.43,1.392.909,1.988,1.445,1.8,3.2,3.3,4.658,5.091a8.283,8.283,0,0,0,5.076,2.7,43.41,43.41,0,0,1,10.173,3.233c.9.429,2.034.574,2.484,1.692-.56,3.84-.127,7.763-1.02,11.578a12.358,12.358,0,0,1-8.56,9.573,32.081,32.081,0,0,1-7.718,1.224c-2.342.175-4.679.191-7.021.2a45.772,45.772,0,0,1-6.644-.533l-1.1-.284c-.244-.565.068-1.045.242-1.54a53.888,53.888,0,0,0,2.7-9.735,14.139,14.139,0,0,0,.162-2.174c-.006-4.253-.483-8.487-.474-12.739,0-.384-.009-.767.013-1.147.183-.672.549-.33.821-.11.625.508,1.249,1.019,1.917,1.469a2.161,2.161,0,0,0,1.39.543c-1.737-3.04-4.162-5.346-6.275-7.948a11.847,11.847,0,0,0,1.931,4.548c.216.34.606.631.386,1.126-1.248,2.75-2.937,5.254-4.419,7.873a18.792,18.792,0,0,1-1.1,1.88.773.773,0,0,1-1.022.386.786.786,0,0,1-.312-.256c-.556-.525-1.085-1.078-1.637-1.608a35.992,35.992,0,0,0-7.777-6.281,3.028,3.028,0,0,1-1.085-.838c-.5-.72-1.362-.813-2.081-1.064-.825-.288-.927-.687-.674-1.408C266.959,252.536,267.321,251.384,267.7,250.237Z" fill="#e2613d"/>
    </g>
    <g id="Group_108" data-name="Group 108" transform="translate(-134.785 -33)">
      <path id="Path_589-2" data-name="Path 589-2" d="M269.321,256.146a24.414,24.414,0,0,1,5.6,3.691,20.519,20.519,0,0,1,3.393,3.219,1.889,1.889,0,0,1,.02,1.664A76.684,76.684,0,0,1,274.2,275.8c-.353.853-.8,1.663-1.219,2.483-.224.437-.441.938-1.1.781l-10.894-3.32c0-1.267.818-2.257,1.166-3.408.143-.473.382-.918.568-1.381.462-1.15.312-1.392-.961-1.4-2.883-.015-5.765,0-8.648,0-1.73,0-3.459.016-5.188-.011-.508-.008-1.256.285-1.228-.709s.793-.651,1.28-.653q7.38-.036,14.759,0a1.45,1.45,0,0,0,1.6-1.045C265.955,263.455,267.422,259.7,269.321,256.146Z" fill="#ffc796"/>
    </g>
    <g id="Group_109" data-name="Group 109" transform="translate(-134.785 -33)">
      <path id="Path_590-2" data-name="Path 590-2" d="M284.945,282.989c3.643-.086,7.28.417,10.921.166a51.36,51.36,0,0,0,9.323-1.092,12.386,12.386,0,0,0,9.59-10.767,55.838,55.838,0,0,0,.478-7.1,28.262,28.262,0,0,1,.438-3.405c.483-.339.876,0,1.251.208.993.556,1.94,1.211,2.974,1.669s.545,1.379.826,2.054A57.242,57.242,0,0,0,323.3,278.8a.776.776,0,0,1,.217.934c-6.634,2.383-13.261,4.8-20.206,6.15a21.969,21.969,0,0,1-8.115-.382A69.391,69.391,0,0,1,284.945,282.989Z" fill="#c3502f"/>
    </g>
    <g id="Group_110" data-name="Group 110" transform="translate(-134.785 -33)">
      <path id="Path_591-2" data-name="Path 591-2" d="M273.933,275.809c1.194-3.1,2.609-6.111,3.583-9.294a15.519,15.519,0,0,0,.8-3.453,15.535,15.535,0,0,1,1.408,1.343c.585.708.936.768,1.432-.126,1.484-2.677,3.045-5.31,4.58-7.959a4.526,4.526,0,0,1,.893-1.316h0a6.959,6.959,0,0,1,.191,1.013c.17,3.978.3,7.956.494,11.933a25.987,25.987,0,0,1-1.3,8.576,59.477,59.477,0,0,1-2.148,6.179,61.8,61.8,0,0,1-6.919-2.083c-.631-.85-.327-1.832-.357-2.756-.052-1.615-.019-1.615-1.6-1.73A1.428,1.428,0,0,1,273.933,275.809Z" fill="#f9d19c"/>
    </g>
    <g id="Group_111" data-name="Group 111" transform="translate(-134.785 -33)">
      <path id="Path_592-2" data-name="Path 592-2" d="M323.522,279.729a1.714,1.714,0,0,1-.217-.934,4.913,4.913,0,0,0,1.975-.555c4.056-1.819,8.383-2.856,12.563-4.311a63.867,63.867,0,0,1,13.72-3.307c.823-.093.826.27.763.836a54.052,54.052,0,0,0-10.971,2.4C335.337,275.587,329.459,277.748,323.522,279.729Z" fill="#f9d19c"/>
    </g>
    <g id="Group_112" data-name="Group 112" transform="translate(-134.785 -33)">
      <path id="Path_593-2" data-name="Path 593-2" d="M247.356,274.584c.039-2.485.039-2.485,2.558-2.485,2.559,0,5.119.032,7.676-.017.842-.016,1.2.21,1.107,1.088-.066.643-.019,1.3-.023,1.947-1.47-.19-2.9-.577-4.381-.76A26.427,26.427,0,0,0,247.356,274.584Z" fill="#dca260"/>
    </g>
    <g id="Group_113" data-name="Group 113" transform="translate(-134.785 -33)">
      <path id="Path_594-2" data-name="Path 594-2" d="M273.932,275.807c3.006-.016,3.006-.016,3.006,2.968v1.843a47.929,47.929,0,0,1-5.055-1.547c.754-.129.787-.85,1.075-1.345C273.319,277.107,273.611,276.449,273.932,275.807Z" fill="#dca160"/>
    </g>
    <g id="Group_114" data-name="Group 114" transform="translate(-134.785 -33)">
      <path id="Path_595-2" data-name="Path 595-2" d="M251.033,250.412c1.149,0,2.3.014,3.446-.006.534-.01.761.194.749.74-.023.957-.031,1.916,0,2.873.022.634-.289.77-.842.766-2.3-.016-4.6-.02-6.892,0-.588.006-.866-.2-.8-.8a.734.734,0,0,0,0-.115c-.138-3.462-.138-3.462,3.3-3.462Z" fill="#dca260"/>
    </g>
    <g id="Group_115" data-name="Group 115" transform="translate(-134.785 -33)">
      <path id="Path_596-2" data-name="Path 596-2" d="M320.751,264.725c-.015-1.3-.914-1.844-1.934-2.318a20.076,20.076,0,0,0-3.116-1.614,37.7,37.7,0,0,0-10.228-3.952c-2.281-.564-4.781-.676-6.6-2.407-1.632-1.558-3.136-3.257-4.625-4.956a10.309,10.309,0,0,1-1.832-2.2c-.542-1.132-.342-1.516.806-2,.8-.337,1.7.113,2.435-.443a16.851,16.851,0,0,1,5.272.434,42.2,42.2,0,0,0,6.1,1.089c1.688.064,2.094-.305,2.383-1.949.281-1.59.1-3.218.39-4.809a3.236,3.236,0,0,1,.209-1.119.288.288,0,0,1,.34-.125,40.432,40.432,0,0,1,3.493,8.812,8.654,8.654,0,0,0,5.276,5.783,4.478,4.478,0,0,1,2.119,1.131,30.166,30.166,0,0,0,3.979,1.035c.757.121.858-.092.852-.72-.019-1.592-.007-3.185-.007-4.988a12.616,12.616,0,0,1,3.1,3.88c.6.993,1.133,1.031,1.983.572.829,1.119,1.985,1.063,3.244,1.132a14.987,14.987,0,0,1,11.984,6.487h0a4.046,4.046,0,0,1-.262,7.047,12.505,12.505,0,0,1-5.969,1.544,29.68,29.68,0,0,1-13.612-2.932,1.326,1.326,0,0,1-.692-.583l-4.932-2.856C320.652,264.047,320.817,264.4,320.751,264.725Z" fill="#ffc796"/>
    </g>
    <g id="Group_116" data-name="Group 116" transform="translate(-134.785 -33)">
      <path id="Path_597-2" data-name="Path 597-2" d="M346.378,261.479c-1.294-1.067-2.319-2.43-3.723-3.377a14.307,14.307,0,0,0-9.688-2.734c-1.072.11-1.487-.671-1.818-1.508,3.177-2.179,5.178-5.329,7.074-8.567.073-.127.16-.245.24-.368a3.8,3.8,0,0,0,1.649,2.165c.1,1.049.871,1.766,1.327,2.636a60.027,60.027,0,0,1,2.866,5.751A35.842,35.842,0,0,1,346.378,261.479Z" fill="#f6b598"/>
    </g>
    <g id="Group_117" data-name="Group 117" transform="translate(-134.785 -33)">
      <path id="Path_598-2" data-name="Path 598-2" d="M325.84,266.559a44.934,44.934,0,0,0,6.9,2.418c3.988.853,7.968,1.325,11.939-.112,3.352-1.213,4.214-3.571,2.325-6.425-.21-.318-.418-.639-.627-.957a1.827,1.827,0,0,0,1.049-.521,17.23,17.23,0,0,1,1.353,3.359c.343,2.241-.526,3.54-2.414,4.733-2.291,1.449-4.8,1.533-7.228,1.576a25.745,25.745,0,0,1-8.789-1.373,24.849,24.849,0,0,1-3.774-1.4,3.234,3.234,0,0,0-1.474-.145c-.445-.021-.963-.1-.919-.617.039-.471.535-.621,1-.492A.91.91,0,0,0,325.84,266.559Z" fill="#f9d19c"/>
    </g>
    <g id="Group_118" data-name="Group 118" transform="translate(-134.785 -33)">
      <path id="Path_599-2" data-name="Path 599-2" d="M310.907,219.4a11.57,11.57,0,0,1-5.342,3.031,13.394,13.394,0,0,1-12.04-3.175c.118-.511.573-.694.946-.939a6.2,6.2,0,0,0,2.853-6.3c-.049-.451-.038-.9-.089-1.349a1.531,1.531,0,0,0-1.009-1.4,20.737,20.737,0,0,1-2.322-1.272,8.884,8.884,0,0,1-4.227-8.96,45.509,45.509,0,0,1,4.6-15.136,9.007,9.007,0,0,1,6.02-5.288,14.516,14.516,0,0,0,.039,3.906,19,19,0,0,0,3.386,7c1.824,2.579,3.977,4.89,6,7.3,3.494,4.161,3.578,5.848.545,10.323-.323.476-.63.964-.945,1.447a.918.918,0,0,1-.223.954,5.089,5.089,0,0,0-.486,4.925,17.667,17.667,0,0,0,1.947,3.895C310.775,218.676,311.089,218.961,310.907,219.4Z" fill="#ffc796"/>
    </g>
    <g id="Group_119" data-name="Group 119" transform="translate(-134.785 -33)">
      <path id="Path_600-2" data-name="Path 600-2" d="M310.906,219.4a17.456,17.456,0,0,1-2.793-5.619,4.508,4.508,0,0,1,.836-4.4,3.045,3.045,0,0,0,.383-.786c1.128-.625,2.409-.351,3.564-.375,2.951-.064,5.9-.322,8.847-.307,1.313.007,1.565.307,1.2,1.612-.76,2.734-1.9,5.337-2.846,8.008-.447,1.263-.94,2.51-1.411,3.765A23.507,23.507,0,0,0,310.906,219.4Z" fill="#37344a"/>
    </g>
    <g id="Group_120" data-name="Group 120" transform="translate(-134.785 -33)">
      <path id="Path_601-2" data-name="Path 601-2" d="M297.245,210.664a6.456,6.456,0,0,1-2.541,7.884c-.381.247-.778.472-1.168.707-1.772.136-3.351,1.012-5.075,1.333-1.2-2.944-2.2-5.962-3.164-8.99-.414-1.3.094-1.861,1.45-1.838a56.74,56.74,0,0,0,7.326-.354A3.927,3.927,0,0,1,297.245,210.664Z" fill="#39354b"/>
    </g>
    <g id="Group_121" data-name="Group 121" transform="translate(-134.785 -33)">
      <path id="Path_602-2" data-name="Path 602-2" d="M223.137,255.337c.343.089.39.429.514.688a27.922,27.922,0,0,0,4.117,6.6c.4.457.816.911,1.236,1.355.2.211.365.384.087.668s-.467.116-.655-.1a30.543,30.543,0,0,1-5.34-7.827,6.469,6.469,0,0,1-.311-.862C222.712,255.586,222.875,255.429,223.137,255.337Z" fill="#219965"/>
    </g>
    <g id="Group_122" data-name="Group 122" transform="translate(-134.785 -33)">
      <path id="Path_603-2" data-name="Path 603-2" d="M310.354,238.354a.463.463,0,0,0-.172.082c-.318-.4-.049-.873-.157-1.273-.011-.18-.21.017-.065-.036.05-.018.075.006.078.071.142,2.891-1.478,4.841-3.581,6.447a9,9,0,0,1-5.541,1.9l-5.256-.716c.01-3.76.052-7.521.007-11.281-.013-1.066.325-1.393,1.386-1.379,3.95.054,7.9.062,11.851,0,1.15-.019,1.463.386,1.421,1.466C310.263,235.206,310.338,236.781,310.354,238.354Z" fill="#3f3f5f"/>
    </g>
    <g id="Group_123" data-name="Group 123" transform="translate(-134.785 -33)">
      <path id="Path_604-2" data-name="Path 604-2" d="M286.63,255.006A20.867,20.867,0,0,1,284,249.557a1.266,1.266,0,0,1-.069-.859c.939.453,1.37,1.385,2.013,2.082a41.285,41.285,0,0,1,4.662,5.832c.191.3.584.675.259,1.019s-.709-.063-1.027-.219a18.244,18.244,0,0,1-3.21-2.407Z" fill="#c3502f"/>
    </g>
    <g id="Group_124" data-name="Group 124" transform="translate(-134.785 -33)">
      <path id="Path_605-2" data-name="Path 605-2" d="M321.244,254.074c-.732-.327-1.589-.422-2.119-1.131a29.867,29.867,0,0,1,4.06-5.383A43.959,43.959,0,0,0,321.244,254.074Z" fill="#c3502f"/>
    </g>
    <g id="Group_125" data-name="Group 125" transform="translate(-134.785 -33)">
      <path id="Path_606-2" data-name="Path 606-2" d="M300.925,245.551a26.735,26.735,0,0,0,3.447-1.068c3.265-1.5,5.394-3.9,5.706-7.667l.114,1.622c-.134,1.984-.238,3.97-.411,5.951-.162,1.839-.815,2.415-2.679,2.333A33.446,33.446,0,0,1,300.925,245.551Z" fill="#202036"/>
    </g>
  </g>
</svg>
